<svg width="339" height="181" viewBox="0 0 339 181" fill="none" xmlns="http://www.w3.org/2000/svg">
<g clip-path="url(#clip0)">
<path d="M4.30006 3.99999H22.9001C30.2334 3.99999 35.6667 5.66666 39.2001 8.99999C42.7334 12.2667 44.5001 17.3667 44.5001 24.3C44.5001 34.6333 40.6334 40.3333 32.9001 41.4C37.7001 42.5333 41.2001 44.8 43.4001 48.2C45.6001 51.5333 46.7001 56.1 46.7001 61.9C46.7001 69.1667 44.9667 74.8333 41.5001 78.9C38.1001 82.9667 32.9001 85 25.9001 85H4.30006V3.99999ZM22.3001 37.8C26.9667 37.8 30.2001 36.8 32.0001 34.8C33.8001 32.7333 34.7001 29.2333 34.7001 24.3C34.7001 20.7 34.1334 18.0667 33.0001 16.4C31.9334 14.6667 30.3001 13.5667 28.1001 13.1C25.9001 12.6333 22.6334 12.4 18.3001 12.4H15.6001V37.8H22.3001ZM23.2001 76.9C26.5334 76.9 29.1001 76.4 30.9001 75.4C32.7667 74.3333 34.0667 72.7333 34.8001 70.6C35.5334 68.4667 35.9001 65.5667 35.9001 61.9C35.9001 56.7 34.8334 52.8333 32.7001 50.3C30.5667 47.7 27.1001 46.4 22.3001 46.4H15.6001V76.9H23.2001ZM62.7415 3.99999H94.1415V12.4H74.0415V39.2H90.3415V47.2H74.0415V76.9H94.3415V85H62.7415V3.99999ZM109.464 3.99999H120.764V39H141.564V3.99999H152.864V85H141.564V47.1H120.764V85H109.464V3.99999ZM172.119 3.99999H183.219V85H172.119V3.99999ZM202.323 3.99999H210.023L233.023 57.8V3.99999H242.424V85H235.224L211.923 29.7V85H202.323V3.99999ZM261.156 3.99999H278.756C287.489 3.99999 293.656 5.99999 297.256 9.99999C300.922 14 302.756 20.2333 302.756 28.7V58.5C302.756 67.4333 300.956 74.1 297.356 78.5C293.822 82.8333 287.922 85 279.656 85H261.156V3.99999ZM278.856 76.9C282.789 76.9 285.622 76.1333 287.356 74.6C289.156 73.0667 290.256 71 290.656 68.4C291.122 65.7333 291.356 61.7333 291.356 56.4V30.1C291.356 25.5 291.056 22 290.456 19.6C289.922 17.1333 288.756 15.3333 286.956 14.2C285.156 13 282.356 12.4 278.556 12.4H272.456V76.9H278.856Z" fill="white"/>
<path d="M9.44 166.88L9.44 175.1L4.4 175.1L4.4 152.12L9.44 152.12L9.44 160.1L53 160.1L53 166.88L9.44 166.88ZM4.4 147.435L4.39999 140.655L25.4 140.655L25.4 128.175L4.39999 128.175L4.39999 121.395L53 121.395L53 128.175L30.26 128.175L30.26 140.655L53 140.655L53 147.435L4.4 147.435ZM4.39999 113.802L4.39999 94.962L9.44 94.962L9.44 107.022L25.52 107.022L25.52 97.242L30.32 97.242L30.32 107.022L48.14 107.022L48.14 94.842L53 94.842L53 113.802L4.39999 113.802Z" fill="white"/>
<path d="M84.4001 175.9C77.6001 175.9 72.4001 173.8 68.8001 169.6C65.2667 165.4 63.3001 159.633 62.9001 152.3L72.9001 149.6C73.2334 154.8 74.2334 159 75.9001 162.2C77.6334 165.4 80.4667 167 84.4001 167C87.3334 167 89.5334 166.2 91.0001 164.6C92.5334 162.933 93.3001 160.567 93.3001 157.5C93.3001 154.167 92.6001 151.4 91.2001 149.2C89.8001 147 87.5667 144.567 84.5001 141.9L70.9001 129.9C68.1667 127.5 66.1667 124.933 64.9001 122.2C63.7001 119.4 63.1001 116 63.1001 112C63.1001 106.067 64.8001 101.467 68.2001 98.2C71.6001 94.9333 76.2334 93.3 82.1001 93.3C88.5001 93.3 93.3334 95 96.6001 98.4C99.8667 101.8 101.833 107.067 102.5 114.2L92.9001 116.8C92.5667 112.067 91.6334 108.433 90.1001 105.9C88.6334 103.3 85.9667 102 82.1001 102C79.2334 102 77.0334 102.767 75.5001 104.3C73.9667 105.767 73.2001 107.967 73.2001 110.9C73.2001 113.3 73.6001 115.333 74.4001 117C75.2001 118.6 76.5667 120.233 78.5001 121.9L92.2001 133.9C95.7334 137.033 98.5334 140.433 100.6 144.1C102.733 147.767 103.8 151.933 103.8 156.6C103.8 162.533 102 167.233 98.4001 170.7C94.8001 174.167 90.1334 175.9 84.4001 175.9ZM121.466 102.4H107.766V94H146.066V102.4H132.766V175H121.466V102.4ZM166.479 94H177.379L194.679 175H183.979L180.279 154.6H163.779L159.879 175H149.279L166.479 94ZM178.779 146.5L171.979 110L165.279 146.5H178.779ZM202.898 94H210.598L233.598 147.8V94H242.998V175H235.798L212.498 119.7V175H202.898V94Z" fill="white"/>
<mask id="mask0" mask-type="alpha" maskUnits="userSpaceOnUse" x="253" y="28" width="86" height="193">
<rect x="339" y="28" width="193" height="86" transform="rotate(90 339 28)" fill="#C4C4C4"/>
</mask>
<g mask="url(#mask0)">
<ellipse rx="48.1062" ry="40.1629" transform="matrix(-0.789477 0.613781 -0.665288 -0.746587 265.005 133.019)" fill="#FFC400"/>
<ellipse rx="15.0909" ry="9.95464" transform="matrix(0.630284 0.776365 -0.818143 0.575015 300.81 108.276)" fill="#FFC400"/>
<path d="M325.197 72.0261C325.197 72.0261 329.295 90.2211 310.999 98.494L325.197 72.0261Z" fill="#04B000"/>
<path d="M325.335 72.0952C325.335 72.0952 307.592 79.337 311.137 98.5632L325.335 72.0952Z" fill="#04B000"/>
<path d="M333.308 78.6227C333.308 78.6227 331.101 96.8768 310.731 99.1519L333.308 78.6227Z" fill="#007A35"/>
<path d="M333.417 78.7286C333.417 78.7286 313.927 80.204 310.841 99.2579L333.417 78.7286Z" fill="#007A35"/>
</g>
</g>
<defs>
<clipPath id="clip0">
<rect width="339" height="181" fill="white"/>
</clipPath>
</defs>
</svg>
